# xmcd CD database file
#
# Track frame offsets:
#	150
#	21317
#	39606
#	52149
#	78348
#	93871
#	109955
#	127802
#	144870
#	159197
#
# Disc length: 2335 seconds
#
# Revision: 1
# Processed by: cddbd v1.5.2PL0 Copyright (c) Steve Scherf et al.
# Submitted via: CDex 1.51
#
DISCID=77091d0a
DTITLE=Ralph Thamar - Alma y Corazon  (featuring Mario Canonge)
DYEAR=2004
DGENRE=Jazz
TTITLE0=Siboney
TTITLE1=Malditos Celos
TTITLE2=Fè van
TTITLE3=Tres Palabras
TTITLE4=Moi ton pantin
TTITLE5=Contigo en la distancia
TTITLE6=Perfume de gardenia
TTITLE7=Pouki
TTITLE8=Nadie me quiere
TTITLE9=En la oscuridad
EXTD=YEAR: 2004
EXTT0=
EXTT1=
EXTT2=
EXTT3=
EXTT4=
EXTT5=
EXTT6=
EXTT7=
EXTT8=
EXTT9=
PLAYORDER=
